<svg width="819" height="826" viewBox="0 0 819 826" fill="none" xmlns="http://www.w3.org/2000/svg">
<path d="M331.722 81.7006L449.444 78.9455C550.802 83.0412 620.303 143.25 660.682 194.038L701.908 193.073C701.978 186.874 621.773 14.4454 447.77 7.4141L389.876 8.76903L387.942 8.8143L330.048 10.1692C156.564 25.3329 84.544 201.325 84.8731 207.514L126.099 206.549C164.058 153.927 230.666 90.5335 331.722 81.7006Z" fill="#F3ED99"/>
<path d="M661.401 192.485L699.956 191.583C696.827 182.56 676.519 141.593 638.31 100.88C600.796 60.9403 537.285 12.5713 447.701 8.95014L330.071 11.7063C240.846 19.5091 179.667 70.7962 144.093 112.446C107.8 154.903 89.4308 196.775 86.7273 205.934L125.282 205.032C163.098 152.85 229.452 89.0962 331.581 80.1705L449.395 77.4101C551.921 81.5492 621.216 142.128 661.401 192.485ZM701.931 194.61L660.705 195.575C660.245 195.586 659.779 195.373 659.463 194.999C619.748 145.022 551.04 84.5917 449.375 80.4817L331.745 83.2376C230.474 92.094 164.7 155.671 127.335 207.452C127.068 207.84 126.613 208.075 126.122 208.086L84.896 209.051C84.0672 209.071 83.3764 208.426 83.3263 207.597C83.1017 203.253 102.497 156.651 141.116 111.213C177.133 68.796 239.15 16.57 329.907 8.63902L447.721 5.87875C538.872 9.55547 603.234 58.8237 641.227 99.5083C681.929 143.09 703.483 188.733 703.431 193.084C703.45 193.914 702.79 194.59 701.931 194.61Z" fill="#292625"/>
<path d="M331.716 81.7018L449.438 78.9467C566.69 83.6849 641.35 163.524 677.553 216.998L702.448 216.416C702.518 210.214 622.313 37.7845 448.31 30.7532L390.416 32.1081L388.482 32.1534L330.588 33.5083C157.104 48.672 85.0842 224.664 85.4134 230.856L110.339 230.273C144.001 175.163 214.814 91.9201 331.716 81.7018Z" fill="#2E2227"/>
<path d="M191.424 310.479C161.684 388.798 99.9952 437.998 53.6351 420.368C7.30572 402.737 -6.18585 324.956 23.5547 246.636C53.2953 168.317 114.984 119.12 161.313 136.751C207.673 154.381 221.134 232.163 191.424 310.479Z" fill="#F2591D"/>
<path d="M140.146 136.456C97.8156 137.446 51.1277 183.233 26.6244 247.8C-2.42141 324.308 10.2002 400.354 54.7939 417.315C61.0847 419.704 67.8067 420.831 74.8056 420.668C117.167 419.676 163.855 373.89 188.358 309.323C202.534 271.982 207.258 233.661 201.681 201.419C196.211 169.785 181.448 147.908 160.158 139.805C153.898 137.419 147.145 136.292 140.146 136.456ZM74.9584 427.196C67.1307 427.38 59.5454 426.112 52.4798 423.422C4.53898 405.18 -9.82959 325.357 20.5194 245.477C45.9489 178.491 95.0842 130.975 139.994 129.924C147.852 129.74 155.407 131.011 162.472 133.698C186.024 142.652 202.241 166.306 208.105 200.303C213.892 233.684 209.044 273.226 194.463 311.643C169.034 378.629 119.898 426.145 74.9584 427.196Z" fill="#292625"/>
<path d="M198.285 318.761C165.71 404.574 185.592 531.006 76.5753 452.964C47.2034 430.237 40.1408 356.812 72.716 271.002C105.291 185.192 158.526 130.442 194.489 139.508C321.595 171.55 230.86 232.951 198.285 318.761Z" fill="#F3ED99"/>
<path d="M185.596 140.077C149.62 140.919 102.755 196.211 74.1423 271.547C40.2944 360.719 50.5989 430.945 77.4995 451.751C100.614 468.28 118.613 476.171 132.519 475.846C162.141 475.152 169.79 435.831 178.614 390.301C183.329 366.043 188.209 340.958 196.86 318.217C205.596 295.151 218.727 273.543 230.29 254.48C248.773 224.042 264.713 197.754 256.34 177.271C249.989 161.822 229.656 149.958 194.095 141C191.407 140.319 188.543 140.008 185.596 140.077ZM132.591 478.918C117.979 479.26 99.3617 471.181 75.6838 454.216C47.876 432.702 36.892 361.011 71.2911 270.455C100.307 194 148.35 137.874 185.524 137.004C188.747 136.929 191.888 137.27 194.854 138.019C231.898 147.361 252.36 159.461 259.169 176.104C268.159 198.024 251.804 224.927 232.907 256.076C221.403 275.027 208.361 296.503 199.711 319.309C191.177 341.802 186.325 366.757 181.638 390.888C172.537 437.722 164.669 478.167 132.591 478.918Z" fill="#292625"/>
<path d="M238.386 336.6C205.811 422.41 151.29 481.282 116.613 468.094C81.9666 454.906 80.2418 374.651 112.817 288.841C145.423 203.031 199.913 144.16 234.59 157.348C269.267 170.535 270.961 250.791 238.386 336.6Z" fill="#2E2227"/>
<path d="M629.03 300.237C662.402 377.079 726.325 423.339 771.809 403.559C817.263 383.781 827.101 305.454 793.729 228.611C760.357 151.769 696.435 105.512 650.981 125.291C605.496 145.07 595.689 223.397 629.03 300.237Z" fill="#F2591D"/>
<path d="M672.084 124.006C665.116 124.169 658.423 125.611 652.282 128.287C608.53 147.319 599.449 223.87 632.042 298.939C659.539 362.285 708.318 405.838 750.68 404.849C757.679 404.685 764.34 403.245 770.482 400.565C791.4 391.477 805.093 368.931 809.077 337.08C813.17 304.608 806.628 266.55 790.721 229.916C763.224 166.567 714.445 123.015 672.084 124.006ZM750.833 411.378C705.893 412.43 654.588 367.261 626.053 301.541C592.031 223.171 602.619 142.761 649.684 122.295C656.616 119.28 664.103 117.657 671.931 117.474C716.871 116.422 768.175 161.588 796.711 227.311C813.073 265.003 819.766 304.278 815.577 337.893C811.28 372.128 796.187 396.514 773.11 406.556C766.147 409.575 758.66 411.195 750.833 411.378Z" fill="#292625"/>
<path d="M622.572 308.83C659.126 393.025 645.18 520.249 750.427 437.193C778.703 413.116 782.323 339.441 745.769 255.249C709.216 171.058 653.477 118.858 617.978 129.596C492.511 167.55 586.018 224.638 622.572 308.83Z" fill="#F3ED99"/>
<path d="M626.9 129.749C623.953 129.818 621.107 130.263 618.454 131.069C583.351 141.682 563.595 154.483 557.974 170.213C550.568 191.065 567.72 216.578 587.607 246.122C600.049 264.62 614.177 285.589 623.982 308.222C633.687 330.534 639.736 355.36 645.58 379.373C656.525 424.441 666.005 463.361 695.627 462.668C709.533 462.343 727.142 453.618 749.489 435.988C775.326 413.985 782.365 343.353 744.382 255.862C712.277 181.947 662.877 128.907 626.9 129.749ZM695.699 465.74C663.621 466.491 653.869 426.458 642.587 380.098C636.776 356.216 630.762 331.515 621.185 309.446C611.447 287.07 597.446 266.227 585.068 247.835C564.734 217.604 547.138 191.496 555.093 169.183C561.116 152.236 580.958 139.192 617.556 128.127C620.483 127.241 623.605 126.753 626.828 126.677C664.002 125.807 714.618 179.624 747.179 254.638C785.777 343.485 778.159 415.612 751.418 438.365C728.499 456.458 710.28 465.399 695.699 465.74Z" fill="#292625"/>
<path d="M583.355 328.528C619.908 412.72 677.124 468.977 711.115 454.182C745.137 439.387 743.106 359.139 706.521 274.948C669.967 190.756 612.752 134.499 578.761 149.294C544.738 164.09 546.77 244.337 583.355 328.528Z" fill="#2E2227"/>
<path d="M675.694 355.445C698.216 334.804 716.019 308.082 727.116 278.312C685.398 289.712 638.343 273.894 609.572 238.806C626.667 236.946 644.276 241.317 659.001 251.065C647.585 220.001 625.471 193.743 598.091 178.688C615.869 177.15 634.024 181.216 649.838 190.268C578.04 143.464 489.452 128.608 408.342 149.781C407.579 149.977 406.816 150.189 406.053 150.397C405.281 150.225 404.509 150.049 403.737 149.889C321.756 132.533 233.96 151.517 164.431 201.628C179.804 191.847 197.749 186.935 215.579 187.64C188.902 203.961 168.072 231.223 158.122 262.787C172.344 252.362 189.76 247.171 206.923 248.23C179.825 284.625 133.562 302.627 91.3559 293.191C103.834 322.41 122.867 348.269 146.329 367.834C130.932 368.723 125.571 390.293 124.613 407.097C121.095 468.07 120.544 529.854 131.989 589.724C143.433 649.594 167.679 707.892 208.019 750.452C248.329 793.013 305.95 818.059 361.164 808.479C381.506 804.95 401.252 796.975 421.023 790.063C441.096 796.043 461.225 803.085 481.679 805.658C537.311 812.644 593.698 784.931 631.972 740.53C670.246 696.13 691.769 636.761 700.4 576.421C709.031 516.081 705.591 454.391 699.225 393.649C697.451 376.909 691.086 355.613 675.694 355.445Z" fill="#F2591D"/>
<path d="M420.94 786.8C421.278 786.792 421.616 786.836 421.957 786.936C425.699 788.053 429.473 789.207 433.247 790.366C449.211 795.28 465.731 800.362 482.088 802.42C488.68 803.247 495.445 803.586 502.198 803.428C547.721 802.366 595.311 778.055 629.489 738.399C664.324 697.993 687.734 641.823 697.157 575.958C706.266 512.401 701.664 448.306 695.97 393.989C694.191 377.024 687.93 358.846 675.641 358.716C674.29 358.701 673.103 357.868 672.613 356.616C672.154 355.364 672.489 353.945 673.481 353.04C694.168 334.065 710.803 309.934 721.781 282.952C715.363 284.298 708.777 285.054 702.116 285.21C666.017 286.055 630.493 269.484 607.034 240.882C606.275 239.956 606.092 238.684 606.527 237.573C606.992 236.462 608.018 235.691 609.213 235.562C623.734 233.971 639.004 236.816 652.397 243.49C640.537 217.033 620.543 194.771 596.523 181.552C595.248 180.863 594.6 179.424 594.905 178.015C595.179 176.607 596.383 175.561 597.793 175.436C604.69 174.841 611.605 175.054 618.447 176.034C574.193 153.904 524.539 142.545 475.486 143.693C452.985 144.22 430.668 147.33 409.177 152.943L406.918 153.552C406.4 153.693 405.878 153.705 405.353 153.588L403.068 153.086C381.338 148.485 358.9 146.422 336.399 146.948C287.346 148.096 238.247 161.766 195.108 185.942C201.865 184.643 208.794 184.103 215.68 184.378C217.125 184.437 218.346 185.426 218.716 186.819C219.087 188.212 218.476 189.68 217.265 190.428C193.859 204.757 174.96 227.929 164.35 254.912C177.417 247.619 192.506 244.063 207.116 244.972C208.316 245.046 209.377 245.768 209.894 246.856C210.38 247.945 210.257 249.224 209.542 250.184C187.447 279.85 152.706 298.065 116.606 298.913C109.976 299.068 103.362 298.621 96.8879 297.576C109.116 324.019 126.862 347.345 148.414 365.328C149.447 366.186 149.849 367.588 149.418 368.861C149.018 370.134 147.841 371.022 146.522 371.099C134.253 371.804 128.849 390.256 127.866 407.284C124.719 461.809 123.12 526.052 135.192 589.11C147.686 654.462 173.699 709.478 210.386 748.208C246.381 786.218 295.056 808.276 340.58 807.211C347.333 807.053 354.044 806.398 360.621 805.263C376.864 802.442 393.128 796.593 408.843 790.938C412.559 789.606 416.245 788.274 419.961 786.982C420.266 786.868 420.602 786.807 420.94 786.8ZM502.351 809.96C495.29 810.125 488.187 809.769 481.287 808.901C464.345 806.774 447.547 801.609 431.305 796.612C427.902 795.564 424.499 794.515 421.097 793.497C417.746 794.676 414.396 795.883 411.045 797.086C395.055 802.837 378.548 808.781 361.723 811.699C354.841 812.89 347.793 813.577 340.732 813.743C293.398 814.85 242.893 792.033 205.639 752.702C168.1 713.065 141.509 656.921 128.771 590.34C116.591 526.576 118.177 461.833 121.345 406.908C122.565 385.533 129.197 370.988 139.467 366.235C117.791 346.878 100.167 322.194 88.3385 294.475C87.8822 293.348 88.0665 292.046 88.843 291.103C89.6195 290.163 90.869 289.737 92.0731 290.004C99.9772 291.777 108.196 292.574 116.454 292.381C148.44 291.63 179.32 276.431 200.264 251.4C186.024 251.872 171.766 256.841 160.02 265.426C158.903 266.26 157.336 266.266 156.211 265.444C155.056 264.62 154.561 263.152 154.99 261.805C163.969 233.375 181.715 208.192 204.506 191.2C190.991 192.451 177.859 196.96 166.177 204.387C164.695 205.335 162.719 204.929 161.733 203.461C160.747 202 161.099 200.012 162.519 198.979C212.899 162.658 274.607 141.859 336.246 140.416C359.269 139.878 382.2 141.991 404.423 146.694L405.967 147.036L407.524 146.621C429.504 140.884 452.311 137.7 475.333 137.161C536.819 135.722 599.277 153.526 651.236 187.299C652.323 187.805 653.116 188.903 653.146 190.193C653.189 191.996 651.749 193.493 649.969 193.535C649.938 193.533 649.908 193.539 649.908 193.536C649.324 193.55 648.738 193.413 648.208 193.106C636.192 186.234 622.863 182.344 609.304 181.726C632.679 197.527 651.517 221.633 661.841 249.374C662.129 249.844 662.326 250.396 662.34 250.989C662.382 252.792 660.943 254.289 659.132 254.332C659.132 254.332 659.101 254.336 659.07 254.333C658.426 254.348 657.776 254.167 657.215 253.789C645.079 245.764 630.605 241.467 616.358 241.662C638.451 265.689 670.008 279.426 701.963 278.678C710.251 278.484 718.424 277.3 726.237 275.162C727.427 274.839 728.664 275.21 729.515 276.109C730.334 277.015 730.58 278.307 730.146 279.454C719.658 307.695 703.208 333.177 682.461 353.527C692.942 357.795 700.216 372.014 702.465 393.308C708.199 448.024 712.813 512.622 703.629 576.886C694.02 643.987 670.084 701.313 634.441 742.667C599.067 783.697 549.685 808.852 502.351 809.96Z" fill="#292625"/>
<path d="M343.302 185.743C361.681 183.64 380.737 188.162 396.208 198.295C391.603 180.017 373.956 167.42 355.64 163.023C337.324 158.628 318.18 160.859 299.426 162.691C307.587 164.931 315.407 168.379 322.577 172.89C291.725 170.937 260.362 178.576 233.89 194.482C241.975 194.797 250.091 195.112 258.207 195.429C235.271 203.602 213.157 214.101 192.352 226.709C239.846 212.732 291.991 215.102 338.058 233.329C338.353 215.751 321.63 203.314 306.701 194.027C327.497 192.848 348.579 197.307 367.107 206.806C359.771 199.142 351.805 192.086 343.302 185.743Z" fill="#D34B20"/>
<path d="M466.15 182.866C447.693 181.626 428.87 187.034 413.89 197.879C417.634 179.406 434.674 165.997 452.733 160.748C470.824 155.502 490.081 156.834 508.9 157.786C500.853 160.406 493.203 164.216 486.252 169.057C516.978 165.663 548.665 171.826 575.852 186.477C567.79 187.17 559.698 187.864 551.606 188.56C574.899 195.651 597.48 205.104 618.852 216.725C570.756 204.986 518.779 209.793 473.615 230.155C472.498 212.61 488.621 199.404 503.099 189.428C482.27 189.224 461.42 194.664 443.357 205.019C450.326 197.02 457.954 189.599 466.15 182.866Z" fill="#D34B20"/>
<path d="M606.547 311.752C606.367 305.366 606.546 298.595 609.951 293.182C612.32 289.389 616.185 286.572 620.521 285.48C621.498 285.233 622.538 285.07 623.523 285.152C625.339 285.3 626.957 286.197 628.573 287.026C646.233 296.182 667.064 299.11 686.598 295.182C688.772 297.519 688.738 301.335 687.238 304.165C685.738 306.991 683.051 308.994 680.263 310.602C675.324 313.484 669.81 315.418 664.118 316.267C668.987 319.606 669.786 327.524 665.678 331.77C663.159 334.365 659.498 335.429 656.019 336.386C651.472 337.642 646.925 338.895 642.378 340.148C634.871 342.218 626.595 344.234 619.545 340.91C614.483 338.517 610.928 333.617 609.023 328.334C607.118 323.052 606.739 317.364 606.547 311.752Z" fill="#F7A80E"/>
<path d="M173.322 354.482C176.738 354.796 180.237 354.686 183.501 353.712C194.725 350.391 200.937 337.577 200.509 325.872C200.051 314.171 194.484 303.345 188.96 293.034C171.725 307.244 147.459 312.41 125.973 306.445C130.79 315.413 140.197 321.034 149.769 324.489C151.844 325.24 154.471 327.263 153.162 329.046C149.688 327.612 145.226 329.868 144.328 333.498C143.377 337.461 146.201 341.327 149.244 344.041C155.893 349.947 164.457 353.663 173.322 354.482Z" fill="#F7A80E"/>
<path d="M688.103 518.456C684.036 508.754 674.702 502.29 664.161 502.02C664.165 502.183 672.636 499.325 673.607 498.802C677.186 496.873 680.254 494.106 682.633 490.794C686.885 484.805 688.368 477.282 687.308 470.058C685.201 456.133 672.636 445.538 658.471 446.586C658.439 446.519 658.437 446.449 658.436 446.381C673.314 442.971 681.525 427.673 677.531 413.186C675.719 406.656 671.931 400.959 666.283 397.15C663.038 394.976 659.32 393.609 655.47 393.121C654.237 392.969 644.087 393.634 644.217 393.956C657.851 387.262 662.524 370.426 655.213 357.253C647.935 344.14 631.892 338.472 618.531 346.319C618.626 346.44 624.239 339.546 624.8 338.579C626.568 335.381 627.591 331.85 627.905 328.199C628.5 320.845 625.746 313.378 620.858 307.919C610.83 296.798 593.954 294.875 582.683 305.412C582.715 305.448 586.536 298.12 586.85 297.113C588.024 293.446 588.333 289.587 587.814 285.772C586.814 278.507 582.576 271.978 576.732 267.654C564.666 258.644 547.421 260.63 538.717 273.272C538.842 273.33 540.975 264.75 541.041 263.639C541.317 259.679 540.61 255.715 539.081 252.058C536.412 245.622 531.102 240.536 524.77 237.712C511.05 231.5 494.658 237.15 488.878 251.337C488.909 251.348 489.27 243.138 489.153 242.083C488.665 238.283 487.321 234.693 485.28 231.47C481.55 225.628 475.466 221.568 468.793 219.901C453.747 216.143 438.139 225.076 435.495 240.729C435.588 240.739 433.91 232.073 433.517 231.025C432.209 227.625 430.173 224.589 427.564 222.059C422.285 216.944 414.847 214.108 407.483 214.444C399.997 214.782 392.998 217.552 387.845 223.077C385.358 225.733 383.497 228.906 382.38 232.366C382.006 233.432 380.797 242.163 380.889 242.149C377.527 227.097 362.601 219.251 348.03 222.647C341.248 224.223 335.145 228.528 331.381 234.353C329.306 237.571 327.947 241.174 327.514 244.984C327.357 246.153 327.946 255.576 328.129 255.514C321.599 241.606 305.308 237.115 291.823 243.609C285.233 246.785 280.057 252.667 277.762 259.613C276.673 262.915 276.262 266.38 276.589 269.843C276.709 271.012 279.317 280.102 279.468 280C270.122 267.794 253.209 266.917 241.447 276.147C235.686 280.668 231.885 287.526 231.134 294.808C230.785 298.271 231.143 301.749 232.203 305.063C232.567 306.176 237.093 314.512 237.243 314.37C225.431 304.425 208.728 307.247 199.262 318.834C189.706 330.468 191.559 347.926 203.685 356.895C203.715 356.836 195.826 354.417 194.779 354.278C190.897 353.757 186.882 354.131 183.196 355.444C176.099 357.962 170.786 363.223 167.471 369.894C160.785 383.405 166.518 400.03 180.417 405.985C180.532 405.666 170.332 405.517 169.109 405.734C165.285 406.416 161.636 407.974 158.527 410.319C153.064 414.427 149.639 420.315 148.135 426.916C146.41 434.537 147.892 442.775 152.585 449.077C154.616 451.849 157.22 454.186 160.178 455.918C161.112 456.446 168.89 459.406 168.919 459.316C155.581 458.98 143.897 468.899 141.561 481.964C138.769 497.839 149.548 513.498 165.978 514.74C165.974 514.571 157.37 517.013 156.398 517.485C153.087 519.062 150.1 521.336 147.707 524.113C142.923 529.672 140.824 537.087 141.362 544.329C141.895 551.335 144.75 557.858 149.84 562.747C152.51 565.282 155.718 567.175 159.185 568.341C160.33 568.717 170.468 570.14 170.398 569.745C155.125 573.352 147.528 588.648 151.436 603.389C153.222 610.159 157.941 616.24 163.981 619.717C167.406 621.699 171.211 622.871 175.207 623.014C176.314 623.053 186.232 621.643 186.038 621.223C171.563 628.746 168.717 646.231 177.409 659.363C181.231 665.169 187.599 669.582 194.478 670.82C198.21 671.492 202.077 671.367 205.707 670.293C206.805 669.975 216.335 665.11 215.863 664.635C204.958 676.351 207.834 694.27 220.637 703.254C233.345 712.132 250.666 709.449 258.605 695.642C258.418 695.539 256.619 703.973 256.581 704.97C256.397 708.928 257.106 712.963 258.818 716.547C261.983 723.202 267.754 728.293 274.689 730.648C288.968 735.792 304.898 728.804 309.529 714.069C309.436 714.047 309.662 722.36 309.87 723.385C310.604 727.186 312.192 730.748 314.446 733.886C318.478 739.476 324.733 742.985 331.4 744.378C346.401 747.525 361.469 737.827 363.998 722.548C363.968 722.549 365.446 730.587 365.807 731.593C367.09 735.203 369.193 738.477 371.838 741.24C376.812 746.429 383.847 749.127 390.948 749.385C405.614 750.034 418.776 738.936 419.502 724.05C419.564 724.048 421.67 731.365 422.091 732.286C423.641 735.533 425.859 738.438 428.555 740.791C434.386 745.829 442.057 748.139 449.687 747.364C456.458 746.677 463.057 743.851 467.73 738.79C470.275 736.019 472.256 732.705 473.462 729.138C473.866 728.016 475.246 718.755 475.093 718.777C478.439 733.11 493.148 742.176 507.536 738.863C514.165 737.334 520.439 733.747 524.485 728.138C526.715 725.008 528.289 721.372 528.999 717.586C529.217 716.444 529.241 706.941 529.027 707.005C534.524 721.383 550.699 727.509 564.66 721.673C571.175 719.191 576.521 714.039 579.414 707.716C581.051 704.158 581.821 700.313 581.637 696.4C581.581 695.292 579.456 685.889 579.153 686.056C587.633 699.319 605.098 701.452 617.317 692.055C629.717 682.539 632.065 664.756 620.803 653.351C620.563 653.602 628.34 657.791 629.269 658.114C633.046 659.418 637.075 659.644 640.992 659.033C648.489 657.867 654.948 653.013 659.04 646.75C667.482 633.42 663.63 615.847 649.034 608.943C648.947 609.194 657.514 610.41 658.497 610.391C662.549 610.326 666.454 609.208 669.97 607.202C676.425 603.497 681.218 596.991 682.859 589.701C686.227 574.799 677.799 559.816 662.405 556.933C662.327 557.507 673.51 555.053 674.696 554.528C679.103 552.558 682.806 549.37 685.507 545.36C690.73 537.558 691.684 527.127 688.103 518.456C689.535 521.927 686.639 514.989 688.103 518.456Z" fill="#F7A80E"/>
<path d="M642.692 469.13C639.308 461.001 631.472 455.587 622.652 455.36C622.655 455.498 629.755 453.103 630.574 452.663C633.577 451.049 636.134 448.73 638.096 445.957C641.664 440.94 642.929 434.633 642.02 428.586C640.273 416.918 629.745 408.04 617.879 408.92C617.847 408.863 617.846 408.804 617.845 408.749C630.309 405.891 637.196 393.076 633.841 380.939C632.331 375.468 629.147 370.695 624.404 367.504C621.72 365.683 618.591 364.536 615.357 364.129C614.34 364.002 605.815 364.561 605.944 364.829C617.361 359.219 621.27 345.116 615.145 334.082C609.052 323.093 595.612 318.345 584.432 324.92C584.496 325.023 589.213 319.244 589.655 318.435C591.159 315.756 592.011 312.797 592.277 309.741C592.778 303.578 590.482 297.321 586.351 292.751C577.963 283.433 563.828 281.821 554.391 290.65C554.422 290.68 557.596 284.54 557.883 283.697C558.855 280.625 559.117 277.391 558.674 274.195C557.825 268.11 554.319 262.64 549.412 259.017C539.284 251.468 524.857 253.133 517.549 263.725C517.643 263.775 519.44 256.586 519.51 255.653C519.74 252.337 519.14 249.016 517.87 245.95C515.625 240.561 511.164 236.297 505.887 233.934C494.371 228.732 480.63 233.461 475.81 245.348C475.81 245.357 476.14 238.479 476.027 237.596C475.646 234.411 474.5 231.407 472.779 228.705C469.654 223.81 464.568 220.41 458.977 219.013C446.341 215.866 433.309 223.345 431.067 236.463C431.159 236.47 429.761 229.208 429.403 228.334C428.322 225.485 426.635 222.939 424.435 220.82C420.004 216.537 413.775 214.159 407.609 214.439C401.35 214.724 395.476 217.044 391.162 221.673C389.064 223.898 387.498 226.557 386.553 229.457C386.266 230.349 385.24 237.664 385.332 237.653C382.518 225.041 370.017 218.466 357.798 221.313C352.117 222.636 347.011 226.241 343.869 231.119C342.12 233.813 340.993 236.834 340.607 240.025C340.476 241.005 340.999 248.899 341.121 248.847C335.657 237.195 322.024 233.432 310.726 238.873C305.199 241.533 300.83 246.464 298.939 252.282C298.021 255.048 297.659 257.949 297.972 260.85C298.057 261.829 300.231 269.448 300.383 269.358C292.527 259.133 278.381 258.397 268.519 266.132C263.693 269.922 260.511 275.665 259.886 281.766C259.585 284.669 259.868 287.583 260.762 290.359C261.091 291.292 264.879 298.274 264.999 298.154C255.099 289.821 241.118 292.187 233.144 301.894C225.172 311.641 226.712 326.265 236.87 333.78C236.9 333.73 230.28 331.706 229.417 331.587C226.151 331.154 222.811 331.465 219.703 332.565C213.764 334.674 209.291 339.083 206.534 344.671C200.933 355.989 205.743 369.916 217.377 374.906C217.463 374.637 208.922 374.514 207.912 374.694C204.701 375.267 201.66 376.571 199.034 378.539C194.477 381.978 191.582 386.912 190.33 392.444C188.882 398.825 190.149 405.725 194.051 411.01C195.764 413.331 197.959 415.287 200.42 416.739C201.198 417.182 207.736 419.66 207.735 419.586C196.579 419.303 186.791 427.614 184.836 438.557C182.475 451.859 191.505 464.977 205.259 466.016C205.286 465.874 198.085 467.921 197.235 468.316C194.471 469.638 191.997 471.54 189.993 473.868C185.987 478.527 184.197 484.739 184.677 490.805C185.121 496.675 187.492 502.141 191.764 506.237C193.995 508.358 196.704 509.945 199.614 510.922C200.543 511.239 209.048 512.426 209.009 512.098C196.211 515.121 189.846 527.932 193.114 540.281C194.598 545.955 198.557 551.049 203.601 553.962C206.496 555.621 209.682 556.604 213.002 556.723C213.924 556.757 222.251 555.575 222.089 555.226C209.951 561.526 207.591 576.174 214.851 587.175C218.067 592.04 223.375 595.74 229.142 596.773C232.288 597.339 235.511 597.232 238.592 596.333C239.476 596.067 247.458 591.988 247.081 591.594C237.943 601.405 240.352 616.418 251.094 623.944C261.71 631.384 276.247 629.135 282.886 617.568C282.731 617.483 281.238 624.548 281.196 625.385C281.028 628.7 281.629 632.08 283.051 635.084C285.7 640.656 290.529 644.921 296.35 646.897C308.337 651.206 321.652 645.351 325.54 633.007C325.479 632.987 325.672 639.952 325.846 640.811C326.442 643.994 327.802 646.978 329.676 649.609C333.041 654.292 338.3 657.23 343.856 658.401C356.418 661.036 369.067 652.911 371.163 640.11C371.163 640.11 372.395 646.844 372.691 647.686C373.776 650.71 375.529 653.454 377.733 655.77C381.92 660.117 387.808 662.377 393.772 662.594C406.039 663.137 417.063 653.838 417.692 641.367C417.723 641.366 419.494 647.494 419.85 648.267C421.142 650.988 423.012 653.422 425.269 655.395C430.129 659.616 436.593 661.549 442.966 660.901C448.634 660.323 454.169 657.959 458.062 653.717C460.22 651.395 461.874 648.621 462.879 645.631C463.195 644.692 464.365 636.933 464.243 636.951C467.073 648.957 479.383 656.551 491.419 653.779C496.979 652.496 502.253 649.492 505.613 644.793C507.487 642.17 508.798 639.124 509.399 635.953C509.592 634.995 509.62 627.036 509.437 627.089C514.05 639.133 527.592 644.264 539.302 639.378C544.751 637.299 549.227 632.983 551.652 627.682C553.025 624.701 553.656 621.48 553.518 618.204C553.466 617.276 551.685 609.399 551.442 609.537C558.521 620.647 573.151 622.438 583.41 614.565C593.789 606.591 595.774 591.694 586.306 582.14C586.126 582.35 592.658 585.858 593.433 586.129C596.56 587.221 599.943 587.412 603.248 586.898C609.491 585.922 614.924 581.857 618.364 576.609C625.412 565.442 622.212 550.718 609.975 544.937C609.888 545.145 617.068 546.166 617.897 546.147C621.274 546.095 624.569 545.157 627.509 543.475C632.904 540.373 636.922 534.924 638.315 528.814C641.125 516.332 634.043 503.78 621.179 501.364C621.098 501.845 630.479 499.79 631.452 499.35C635.16 497.698 638.261 495.028 640.517 491.67C644.91 485.134 645.688 476.394 642.692 469.13C643.897 472.037 641.488 466.225 642.692 469.13Z" fill="#F2CC46"/>
<path d="M597.28 419.801C594.546 413.247 588.24 408.882 581.11 408.701C581.113 408.809 586.842 406.879 587.509 406.525C589.936 405.221 592.011 403.352 593.587 401.117C596.471 397.069 597.489 391.985 596.76 387.108C595.342 377.701 586.851 370.543 577.285 371.253C577.254 371.205 577.253 371.158 577.252 371.112C587.302 368.808 592.834 358.476 590.148 348.689C588.909 344.279 586.392 340.431 582.555 337.859C580.37 336.388 577.861 335.463 575.242 335.134C574.411 335.034 567.572 335.483 567.638 335.7C576.87 331.177 580.013 319.803 575.075 310.905C570.168 302.047 559.329 298.218 550.3 303.52C550.363 303.602 554.155 298.945 554.539 298.29C555.748 296.132 556.429 293.746 556.617 291.282C557.054 286.31 555.185 281.266 551.874 277.581C545.095 270.067 533.7 268.769 526.096 275.885C526.127 275.909 528.684 270.958 528.913 270.28C529.715 267.802 529.9 265.197 529.533 262.62C528.865 257.711 526.028 253.301 522.059 250.382C513.901 244.292 502.261 245.635 496.379 254.174C496.472 254.215 497.903 248.417 497.947 247.669C498.13 244.994 497.668 242.314 496.628 239.843C494.837 235.498 491.255 232.059 486.972 230.152C477.69 225.958 466.63 229.773 462.708 239.358C462.739 239.366 462.978 233.818 462.9 233.107C462.594 230.538 461.677 228.115 460.275 225.938C457.756 221.988 453.669 219.247 449.158 218.122C438.963 215.585 428.447 221.617 426.667 232.19C426.729 232.198 425.578 226.344 425.316 225.637C424.433 223.34 423.064 221.288 421.304 219.58C417.722 216.125 412.702 214.208 407.731 214.435C402.7 214.663 397.952 216.536 394.446 220.267C392.799 222.061 391.528 224.205 390.754 226.544C390.525 227.263 389.711 233.16 389.772 233.152C387.476 222.984 377.401 217.681 367.565 219.977C362.983 221.043 358.874 223.949 356.324 227.882C354.932 230.057 354.006 232.492 353.698 235.066C353.593 235.856 354.019 242.221 354.14 242.178C349.713 232.783 338.708 229.751 329.596 234.136C325.132 236.282 321.631 240.255 320.113 244.948C319.367 247.179 319.084 249.519 319.323 251.859C319.403 252.647 321.144 258.791 321.265 258.718C314.929 250.474 303.52 249.88 295.589 256.115C291.668 259.174 289.104 263.805 288.605 268.723C288.383 271.064 288.592 273.411 289.32 275.65C289.583 276.403 292.633 282.034 292.722 281.937C284.764 275.219 273.475 277.125 267.055 284.954C260.636 292.811 261.864 304.605 270.052 310.663C270.082 310.622 264.731 308.989 264.053 308.898C261.403 308.545 258.706 308.798 256.208 309.684C251.426 311.385 247.824 314.937 245.595 319.446C241.079 328.571 244.966 339.802 254.335 343.825C254.422 343.608 247.51 343.511 246.714 343.653C244.115 344.117 241.651 345.167 239.539 346.754C235.857 349.53 233.554 353.506 232.522 357.966C231.383 363.111 232.373 368.677 235.544 372.937C236.909 374.808 238.666 376.387 240.689 377.554C241.281 377.915 246.549 379.912 246.579 379.85C237.574 379.621 229.684 386.323 228.109 395.149C226.21 405.873 233.491 416.452 244.568 417.29C244.565 417.177 238.768 418.825 238.1 419.145C235.883 420.211 233.861 421.746 232.246 423.622C229.017 427.378 227.599 432.385 227.959 437.28C228.315 442.011 230.261 446.42 233.686 449.721C235.477 451.432 237.657 452.712 240.01 453.499C240.753 453.755 247.624 454.713 247.588 454.447C237.263 456.886 232.13 467.219 234.759 477.176C235.972 481.749 239.17 485.855 243.248 488.203C245.553 489.545 248.12 490.337 250.825 490.433C251.563 490.459 258.267 489.506 258.138 489.223C248.367 494.306 246.432 506.115 252.291 514.988C254.901 518.908 259.179 521.891 263.836 522.726C266.365 523.18 268.974 523.095 271.444 522.37C272.177 522.153 278.611 518.867 278.296 518.548C270.926 526.461 272.868 538.568 281.517 544.636C290.073 550.633 301.794 548.819 307.166 539.492C307.041 539.425 305.823 545.122 305.808 545.795C305.656 548.47 306.15 551.195 307.312 553.614C309.444 558.111 313.333 561.549 318.039 563.142C327.672 566.615 338.434 561.896 341.549 551.943C341.487 551.926 341.65 557.542 341.789 558.233C342.279 560.801 343.379 563.207 344.903 565.329C347.602 569.105 351.835 571.475 356.341 572.418C366.465 574.542 376.631 567.99 378.355 557.67C378.355 557.67 379.342 563.1 379.573 563.78C380.459 566.218 381.863 568.43 383.657 570.297C387.025 573.799 391.767 575.625 396.563 575.798C406.463 576.237 415.348 568.74 415.849 558.683C415.88 558.682 417.317 563.625 417.608 564.248C418.642 566.441 420.131 568.404 421.981 569.993C425.899 573.397 431.096 574.956 436.243 574.433C440.809 573.97 445.279 572.061 448.424 568.639C450.131 566.77 451.491 564.531 452.295 562.121C452.553 561.365 453.513 555.108 453.39 555.123C455.674 564.802 465.616 570.927 475.3 568.69C479.79 567.656 484.033 565.236 486.77 561.443C488.287 559.33 489.335 556.877 489.798 554.317C489.964 553.545 489.998 547.125 489.845 547.169C493.543 556.883 504.482 561.02 513.911 557.079C518.325 555.402 521.929 551.921 523.887 547.648C524.967 545.247 525.49 542.649 525.367 540.005C525.349 539.259 523.911 532.904 523.698 533.017C529.437 541.976 541.203 543.419 549.47 537.071C557.858 530.643 559.45 518.63 551.837 510.926C551.657 511.096 556.944 513.923 557.564 514.143C560.103 515.024 562.84 515.175 565.471 514.763C570.521 513.975 574.898 510.697 577.655 506.467C583.372 497.461 580.76 485.592 570.915 480.928C570.826 481.096 576.62 481.917 577.295 481.904C580.028 481.862 582.682 481.108 585.046 479.749C589.41 477.249 592.655 472.854 593.768 467.928C596.02 457.863 590.317 447.741 579.921 445.793C579.899 446.181 587.446 444.522 588.237 444.169C591.215 442.836 593.714 440.684 595.524 437.976C599.087 432.704 599.72 425.659 597.28 419.801C598.256 422.145 596.304 417.46 597.28 419.801Z" fill="#F8E298"/>
<path d="M340.707 325.637C353.113 328.147 365.487 331.946 375.884 339.172C386.281 346.399 394.525 357.466 396.048 370.041C398.255 388.228 386.518 405.071 373.898 418.342C350.007 443.46 318.912 463.899 284.352 466.236C298.244 461.383 311.117 453.697 322.004 443.784C297.032 458.177 265.612 460.787 238.594 450.713C255.255 455.229 273.548 453.415 289.001 445.709C267.681 450.751 244.192 444.495 227.639 430.109C211.116 415.721 201.725 393.719 201.918 371.793C201.982 362.726 203.878 353.173 209.924 346.432C214.385 341.473 220.612 338.549 226.789 336.065C262.694 321.64 302.812 317.968 340.707 325.637Z" fill="#F7A80E"/>
<path d="M480.837 322.357C468.563 325.445 456.349 329.819 446.301 337.524C436.285 345.229 428.567 356.67 427.634 369.302C426.281 387.572 438.763 403.849 451.989 416.515C477.029 440.488 509.047 459.449 543.708 460.166C529.605 455.968 516.355 448.894 505.047 439.5C530.665 452.709 562.173 453.847 588.659 442.52C572.228 447.811 553.901 446.853 538.104 439.879C559.637 443.919 582.807 436.57 598.639 421.426C614.501 406.281 622.852 383.863 621.634 361.97C621.115 352.917 618.805 343.463 612.45 337.011C607.762 332.267 601.374 329.638 595.088 327.445C558.579 314.715 518.333 312.924 480.837 322.357Z" fill="#F7A80E"/>
<path d="M635.748 298.279C637.206 360.584 587.953 412.275 525.7 413.731C463.447 415.188 411.8 365.859 410.342 303.554C408.883 241.246 458.167 189.558 520.42 188.101C582.673 186.644 634.29 235.971 635.748 298.279Z" fill="#523B1A"/>
<path d="M620.756 302.305C622.077 358.751 577.44 405.581 521.02 406.901C464.63 408.221 417.851 363.53 416.53 307.084C415.209 250.638 459.846 203.808 516.236 202.489C572.656 201.168 619.435 245.859 620.756 302.305Z" fill="#D1B86C"/>
<path d="M620.756 302.305C622.077 358.751 577.44 405.581 521.02 406.901C464.63 408.221 417.851 363.53 416.53 307.084C415.209 250.638 459.846 203.808 516.236 202.489C572.656 201.168 619.435 245.859 620.756 302.305Z" fill="#D1B86C"/>
<path d="M610.971 302.534C612.165 353.572 571.815 395.915 520.798 397.109C469.81 398.302 427.524 357.894 426.33 306.855C425.135 255.816 465.485 213.473 516.472 212.28C567.49 211.086 609.776 251.495 610.971 302.534Z" fill="#F3ED99"/>
<path d="M561.833 259.39C562.405 283.84 543.07 304.124 518.635 304.696C494.231 305.267 473.968 285.91 473.396 261.46C472.823 237.013 492.159 216.73 516.563 216.158C540.997 215.587 561.261 234.943 561.833 259.39Z" fill="#D4C18D"/>
<path d="M549.621 259.676C550.035 277.366 536.035 292.041 518.353 292.455C500.703 292.868 486.032 278.864 485.618 261.173C485.204 243.486 499.204 228.811 516.854 228.398C534.536 227.985 549.207 241.988 549.621 259.676Z" fill="#2E2227"/>
<path d="M517.381 251.041C517.503 256.224 513.426 260.521 508.238 260.643C503.051 260.764 498.778 256.662 498.656 251.479C498.535 246.296 502.612 241.998 507.799 241.877C512.987 241.755 517.26 245.857 517.381 251.041Z" fill="white"/>
<path d="M458.69 256.58C468.997 258.678 474.361 275.242 470.643 293.573C466.895 311.909 455.532 325.067 445.194 322.97C434.886 320.869 429.554 304.304 433.271 285.973C436.988 267.638 448.382 254.479 458.69 256.58Z" fill="white"/>
<path d="M541.027 379.915C492.311 381.055 449.73 352.977 429.997 311.681C431.884 345.052 452.967 375.791 486.216 388.348C515.685 399.472 547.397 393.565 570.532 375.529C561.134 378.159 551.218 379.676 541.027 379.915Z" fill="#D4C18D"/>
<path d="M175.515 309.051C176.973 371.356 228.621 420.685 290.874 419.228C353.127 417.771 402.41 366.08 400.952 303.775C399.494 241.467 347.846 192.141 285.593 193.598C223.34 195.055 174.057 246.743 175.515 309.051Z" fill="#523B1A"/>
<path d="M190.702 312.368C192.023 368.814 238.801 413.504 295.191 412.184C351.612 410.864 396.248 364.034 394.927 307.588C393.606 251.142 346.828 206.451 290.407 207.772C234.017 209.092 189.381 255.922 190.702 312.368Z" fill="#D1B86C"/>
<path d="M190.702 312.368C192.023 368.814 238.801 413.504 295.191 412.184C351.612 410.864 396.248 364.034 394.927 307.588C393.606 251.142 346.828 206.451 290.407 207.772C234.017 209.092 189.381 255.922 190.702 312.368Z" fill="#D1B86C"/>
<path d="M200.49 312.14C201.685 363.178 243.971 403.587 294.958 402.394C345.976 401.2 386.326 358.857 385.131 307.818C383.937 256.78 341.651 216.371 290.633 217.565C239.646 218.758 199.296 261.101 200.49 312.14Z" fill="#F3ED99"/>
<path d="M247.556 266.745C248.129 291.195 268.392 310.552 292.796 309.98C317.23 309.409 336.566 289.125 335.994 264.675C335.421 240.228 315.158 220.871 290.724 221.443C266.32 222.014 246.984 242.298 247.556 266.745Z" fill="#D4C18D"/>
<path d="M259.768 266.458C260.182 284.149 274.853 298.152 292.503 297.739C310.185 297.325 324.184 282.651 323.77 264.96C323.356 247.272 308.686 233.269 291.004 233.683C273.354 234.096 259.354 248.77 259.768 266.458Z" fill="#2E2227"/>
<path d="M291.547 256.326C291.668 261.509 295.972 265.611 301.16 265.489C306.347 265.368 310.424 261.07 310.303 255.887C310.181 250.704 305.908 246.602 300.72 246.723C295.533 246.845 291.426 251.143 291.547 256.326Z" fill="white"/>
<path d="M227.881 268.45C238.347 269.416 245.475 285.299 243.761 303.928C242.047 322.557 232.155 336.88 221.69 335.913C211.194 334.951 204.096 319.067 205.81 300.435C207.493 281.807 217.386 267.487 227.881 268.45Z" fill="white"/>
<path d="M273.968 386.165C322.684 385.025 363.905 354.985 381.684 312.811C381.36 346.234 361.739 377.925 329.113 392.024C300.197 404.515 268.244 400.098 244.29 383.164C253.801 385.352 263.746 386.404 273.968 386.165Z" fill="#D4C18D"/>
<path d="M424.304 317.747C421.408 314.716 418.058 312.009 414.168 311.138C410.432 310.294 406.131 311.566 403.908 315.015C401.495 311.668 397.17 310.589 393.447 311.602C389.632 312.641 386.382 315.496 383.63 318.649C368.973 335.442 365.437 361.519 369.42 384.706C373.402 407.893 383.816 428.974 394.096 449.6C394.869 451.122 401.201 460.522 407.249 460.39C413.265 460.255 418.967 450.586 419.637 449.03C429.003 427.968 438.481 406.443 441.436 383.103C444.361 359.764 439.7 333.867 424.304 317.747Z" fill="#2D1615"/>
<path d="M392.381 315.706C389.569 316.282 387.538 318.749 385.875 321.17C374.207 338.375 370.795 360.542 372.79 381.516C374.962 404.76 383.445 427.341 396.997 446.009C399.345 449.243 402.744 452.705 406.531 451.787C410.867 450.732 412.053 444.98 412.344 440.353C414.796 402.079 416.329 362.56 403.751 326.463C402.796 323.725 401.748 320.949 399.855 318.78C397.992 316.61 395.132 315.137 392.381 315.706Z" fill="#EE8B40"/>
<path d="M411.906 315.221C408.091 316.233 406.381 320.582 405.333 324.385C394.605 363.366 393.83 405.057 403.136 444.408C403.785 447.191 404.873 450.399 407.626 451.226C411.029 452.265 414.051 448.829 415.914 445.76C432.645 417.862 439.752 384.274 435.71 351.974C434.121 339.223 430.243 325.73 420.106 317.824C417.76 315.991 414.776 314.459 411.906 315.221Z" fill="#F2591D"/>
<path d="M414.583 389.013C415.316 420.354 411.46 445.864 406.026 445.991C400.562 446.119 395.548 420.817 394.814 389.475C394.08 358.134 397.906 332.625 403.37 332.497C408.804 332.37 413.849 357.671 414.583 389.013Z" fill="#F3DE3E"/>
<path d="M405.545 370.338C407.739 369.605 408.568 366.969 408.821 364.682C409.727 357.455 408.293 349.97 404.826 343.574C399.605 348.851 397.674 356.886 399.073 364.167C399.389 365.835 399.889 367.526 400.994 368.813C402.13 370.096 403.96 370.88 405.545 370.338Z" fill="white"/>
<path d="M407.788 388.404C406.55 384.064 405.312 379.725 404.043 375.39C401.722 379.877 400.738 385.055 401.285 390.084C401.41 391.476 401.689 392.908 402.514 394.042C403.34 395.178 404.832 395.934 406.143 395.525C407.454 395.128 408.251 393.757 408.404 392.404C408.556 391.054 408.156 389.708 407.788 388.404Z" fill="white"/>
<path d="M333.634 800.395C327.922 796.511 320.066 799.424 314.511 803.526C301.86 812.86 294.036 827.626 290.463 842.93C286.859 858.234 287.171 874.172 288.275 889.851C288.422 892.197 288.917 894.989 291.058 895.922C293.974 897.173 296.725 893.982 298.289 891.237C306.549 876.725 314.809 862.209 323.1 847.693C327.495 839.936 331.95 832.156 335.506 823.969C337.226 820.034 338.757 815.907 338.81 811.617C338.864 807.328 337.191 802.802 333.634 800.395Z" fill="#EDA263"/>
<path d="M327.195 801.839C323.972 801.914 320.078 803.49 316.454 806.157C305.525 814.236 297.422 827.562 293.622 843.679C290.049 859.004 290.511 874.821 291.534 889.63C291.725 892.57 292.348 892.921 292.379 892.924L292.41 892.935C292.809 892.926 294.137 891.917 295.465 889.621L320.276 846.077C324.582 838.484 329.037 830.677 332.505 822.664C334.05 819.121 335.496 815.321 335.532 811.576C335.588 808.725 334.61 805.001 331.832 803.098C330.521 802.21 329.007 801.796 327.195 801.839ZM292.563 899.467C291.611 899.49 290.685 899.305 289.786 898.92C285.504 897.078 285.17 891.995 285.033 890.08C283.968 874.762 283.492 858.358 287.291 842.189C291.393 824.564 300.387 809.899 312.585 800.899C315.332 798.873 320.842 795.455 327.043 795.31C330.204 795.236 333.049 796.036 335.483 797.692C339.634 800.503 342.155 805.854 342.076 811.663C342.006 816.564 340.331 821.101 338.494 825.272C334.88 833.611 330.337 841.571 325.971 849.27L301.13 892.857C299.744 895.284 296.799 899.368 292.563 899.467Z" fill="#292625"/>
<path d="M324.455 827.778C325.077 824.149 325.542 820.393 324.659 816.814C323.465 823.522 319.123 829.6 313.182 832.951C314.556 837.862 314.835 843.226 313.012 847.997C311.188 852.764 307.075 856.805 302.058 857.678C302.969 866.406 301.429 875.381 297.621 883.294C304.655 870.212 311.659 857.128 318.693 844.043C319.988 841.63 321.283 839.208 322.236 836.637C323.306 833.781 323.942 830.781 324.455 827.778Z" fill="#DC7029"/>
<path d="M354.269 799.912C359.793 795.765 367.807 798.308 373.548 802.145C386.591 810.877 395.128 825.261 399.413 840.38C403.698 855.5 404.132 871.435 403.794 887.148C403.726 889.498 403.392 892.31 401.267 893.343C398.443 894.728 395.515 891.67 393.825 889.002C384.895 874.892 375.965 860.779 367.034 846.665C362.251 839.123 357.467 831.559 353.502 823.548C351.63 819.697 349.907 815.646 349.654 811.364C349.4 807.081 350.828 802.483 354.269 799.912Z" fill="#EDA263"/>
<path d="M360.776 801.054C358.995 801.096 357.502 801.579 356.234 802.528C353.518 804.559 352.746 808.325 352.904 811.17C353.115 814.916 354.737 818.638 356.446 822.105C360.316 829.97 365.132 837.57 369.788 844.919L396.609 887.255C398.012 889.478 399.386 890.427 399.785 890.423C399.846 890.397 400.451 889.99 400.505 887.08C400.865 872.243 400.556 856.428 396.27 841.278C391.751 825.358 383.033 812.427 371.707 804.868C367.994 802.37 363.999 800.978 360.776 801.054ZM399.816 890.423L399.892 893.689L399.816 890.423ZM399.969 896.955C395.702 897.055 392.569 893.11 391.07 890.753L364.28 848.417C359.528 840.92 354.617 833.172 350.586 824.994C348.587 820.915 346.67 816.462 346.371 811.563C346.051 805.764 348.319 800.3 352.303 797.299C354.658 795.532 357.461 794.599 360.623 794.525C366.824 794.38 372.518 797.536 375.358 799.434C387.932 807.855 397.602 822.083 402.555 839.492C407.107 855.518 407.385 872.616 407.051 887.226C406.999 888.961 406.877 894.235 402.686 896.279C401.836 896.705 400.92 896.932 399.969 896.955Z" fill="#292625"/>
<path d="M377.371 828.945C376.952 834.648 378.071 840.457 380.556 845.606C381.428 847.43 382.514 849.206 384.049 850.498C385.615 851.793 387.721 852.546 389.707 852.1C388.879 857.391 390.632 862.73 392.713 867.655C394.077 870.851 395.625 873.981 397.293 877.025C396.239 876.582 395.45 875.672 394.723 874.792C390.96 870.21 387.318 865.515 383.676 860.82C382.03 858.698 380.383 856.579 378.736 854.456C377.723 853.146 376.709 851.832 375.726 850.493C368.934 841.147 364.015 830.411 361.416 819.137C360.631 815.78 360.114 812.048 361.857 809.066C365.66 816.708 369.903 824.792 377.371 828.945Z" fill="#DC7029"/>
<path d="M364.551 833.95C365.097 857.288 357.025 900.84 345.79 901.103C334.586 901.365 324.485 858.239 323.939 834.901C323.393 811.566 332.037 792.437 343.241 792.174C354.476 791.911 364.005 810.616 364.551 833.95Z" fill="#EDA263"/>
<path d="M343.318 795.442C335.275 795.63 326.656 811.851 327.193 834.826C327.803 860.902 338.715 898.003 345.714 897.839C352.744 897.674 361.877 860.104 361.267 834.029C360.729 811.054 351.391 795.253 343.318 795.442ZM345.867 904.371C330.334 904.734 321.144 855.899 320.655 834.979C320.057 809.457 329.965 789.219 343.165 788.91C356.395 788.601 367.208 808.354 367.805 833.876C368.295 854.796 361.43 904.006 345.867 904.371Z" fill="#292625"/>
<path d="M307.112 821.85C307.239 823.353 308.283 824.62 309.321 825.696C310.234 826.625 311.361 827.542 312.651 827.53C314.708 827.51 315.947 825.326 316.794 823.443C317.842 821.012 318.92 818.527 319.135 815.884C319.38 813.241 318.607 810.364 316.571 808.68C313.928 811.245 311.443 813.999 309.177 816.911C308.044 818.357 306.916 820.025 307.112 821.85Z" fill="#F3ED99"/>
<path d="M332.295 834.829C332.858 836.59 333.915 838.444 335.707 838.897C337.437 839.342 339.284 838.204 340.231 836.66C341.178 835.12 341.411 833.257 341.614 831.457C342.586 821.819 342.604 812.086 341.703 802.439C341.587 801.412 341.125 800.07 340.114 800.165C339.562 800.211 339.174 800.657 338.846 801.077C334.227 807.139 332.319 814.872 331.545 822.465C331.119 826.603 331.035 830.872 332.295 834.829Z" fill="#F3ED99"/>
<path d="M379.058 814.611C376.317 811.669 373.362 808.772 369.699 807.13C369.203 806.905 368.614 806.703 368.097 806.903C367.751 809.177 368.481 811.508 369.694 813.472C370.877 815.439 372.482 817.098 374.086 818.739C375.439 820.109 376.792 821.48 378.114 822.85C379.309 824.055 380.783 825.364 382.465 825.039C383.439 823.347 383.296 821.161 382.516 819.354C381.737 817.549 380.381 816.05 379.058 814.611Z" fill="#F3ED99"/>
<path d="M344.932 893.043C348.583 892.893 350.67 888.87 351.817 885.394C358.216 866.191 359.943 845.459 356.864 825.454C355.345 815.665 352.152 805.251 344.064 799.538C346.829 820.586 348.186 841.814 348.13 863.039C348.129 866.928 348.066 870.818 347.942 874.707C347.75 880.933 347.377 887.308 344.932 893.043Z" fill="#DC7029"/>
<path d="M495.504 796.608C489.762 792.725 481.906 795.639 476.351 799.74C463.7 809.074 455.876 823.841 452.303 839.144C448.699 854.448 449.011 870.386 450.115 886.066C450.262 888.411 450.757 891.203 452.898 892.136C455.814 893.387 458.565 890.196 460.129 887.451C468.389 872.939 476.68 858.423 484.94 843.907C489.365 836.149 493.79 828.37 497.346 820.183C499.066 816.248 500.597 812.121 500.65 807.831C500.703 803.542 499.031 799.016 495.504 796.608Z" fill="#EDA263"/>
<path d="M489.032 798.049C485.809 798.124 481.915 799.7 478.292 802.367C467.363 810.45 459.259 823.775 455.49 839.888C451.887 855.223 452.349 871.035 453.371 885.84C453.563 888.78 454.216 889.131 454.216 889.134L454.247 889.146C454.646 889.136 456.004 888.127 457.302 885.834L482.113 842.287C486.42 834.728 490.875 826.911 494.342 818.875C495.918 815.33 497.334 811.537 497.399 807.786C497.425 804.935 496.478 801.21 493.669 799.309C492.358 798.42 490.844 798.007 489.032 798.049ZM454.4 895.678C453.448 895.7 452.523 895.515 451.623 895.131C447.341 893.285 446.972 888.022 446.87 886.29C445.853 871.712 445.33 854.62 449.128 838.399C453.23 820.777 462.224 806.113 474.422 797.109C477.169 795.084 482.679 791.665 488.88 791.52C492.041 791.446 494.886 792.247 497.32 793.902C501.471 796.713 503.992 802.064 503.913 807.873C503.843 812.781 502.168 817.317 500.331 821.486C496.718 829.84 492.175 837.813 487.779 845.524L462.968 889.068C461.581 891.492 458.636 895.578 454.4 895.678Z" fill="#292625"/>
<path d="M486.285 823.992C486.906 820.362 487.371 816.607 486.519 813.027C485.294 819.736 480.952 825.813 475.042 829.164C476.385 834.076 476.664 839.44 474.841 844.21C473.018 848.978 468.904 853.018 463.888 853.892C464.799 862.619 463.258 871.595 459.45 879.507C466.485 866.425 473.488 853.341 480.523 840.256C481.818 837.843 483.112 835.422 484.066 832.851C485.135 829.995 485.771 826.995 486.285 823.992Z" fill="#DC7029"/>
<path d="M516.099 796.128C521.622 791.981 529.636 794.523 535.377 798.36C548.42 807.093 556.957 821.476 561.242 836.596C565.528 851.715 565.962 867.65 565.623 883.364C565.555 885.714 565.222 888.525 563.096 889.559C560.272 890.943 557.375 887.885 555.685 885.216C546.724 871.107 537.794 856.994 528.864 842.881C524.08 835.338 519.296 827.774 515.362 819.763C513.46 815.913 511.737 811.861 511.483 807.579C511.229 803.297 512.657 798.698 516.099 796.128Z" fill="#EDA263"/>
<path d="M522.641 797.264C520.83 797.306 519.336 797.79 518.068 798.739C515.352 800.77 514.58 804.535 514.738 807.381C514.949 811.115 516.572 814.845 518.281 818.319C522.15 826.157 526.935 833.748 531.591 841.091L558.443 883.466C559.847 885.689 561.22 886.637 561.65 886.634C561.711 886.608 562.285 886.201 562.371 883.291C562.699 868.457 562.421 852.641 558.104 837.488C553.585 821.569 544.867 808.637 533.572 801.075C529.828 798.581 525.833 797.189 522.641 797.264ZM561.65 886.634L561.727 889.9L561.65 886.634ZM561.803 893.166C557.567 893.265 554.403 889.324 552.905 886.967L526.114 844.628C521.331 837.101 516.451 829.361 512.421 821.204C510.421 817.113 508.505 812.658 508.237 807.77C507.886 801.975 510.154 796.511 514.138 793.51C516.492 791.742 519.296 790.81 522.488 790.735C528.658 790.591 534.352 793.747 537.192 795.645C549.766 804.065 559.436 818.293 564.389 835.703C568.942 851.732 569.219 868.827 568.885 883.436C568.838 885.356 568.711 890.449 564.551 892.489C563.671 892.916 562.755 893.143 561.803 893.166Z" fill="#292625"/>
<path d="M539.2 825.157C538.78 830.86 539.899 836.669 542.384 841.818C543.256 843.642 544.342 845.418 545.877 846.71C547.443 848.004 549.549 848.758 551.535 848.311C550.707 853.603 552.46 858.941 554.572 863.866C555.936 867.062 557.453 870.192 559.121 873.237C558.067 872.794 557.308 871.883 556.581 871.003C552.789 866.422 549.147 861.727 545.505 857.032C543.858 854.91 542.211 852.79 540.565 850.668C539.551 849.357 538.538 848.044 537.554 846.705C530.763 837.359 525.843 826.622 523.245 815.349C522.491 811.991 521.943 808.26 523.685 805.277C527.519 812.919 531.762 821.003 539.2 825.157Z" fill="#DC7029"/>
<path d="M526.391 830.163C526.937 853.501 518.865 897.053 507.63 897.316C496.426 897.578 486.326 854.451 485.779 831.113C485.233 807.779 493.877 788.649 505.081 788.387C516.316 788.124 525.845 806.828 526.391 830.163Z" fill="#EDA263"/>
<path d="M505.158 791.655C497.115 791.843 488.496 808.064 489.033 831.039C489.644 857.114 500.555 894.215 507.554 894.051C514.584 893.887 523.717 856.317 523.107 830.242C522.569 807.266 513.231 791.466 505.158 791.655ZM507.707 900.583C492.174 900.947 482.985 852.112 482.495 831.192C481.898 805.67 491.805 785.432 505.005 785.123C518.235 784.813 529.048 804.566 529.645 830.089C530.135 851.008 523.27 900.219 507.707 900.583Z" fill="#292625"/>
<path d="M468.947 818.065C469.105 819.568 470.118 820.835 471.156 821.911C472.069 822.84 473.196 823.757 474.486 823.746C476.543 823.725 477.812 821.541 478.628 819.659C479.677 817.227 480.755 814.742 480.97 812.1C481.215 809.457 480.472 806.578 478.406 804.896C475.763 807.46 473.278 810.214 471.012 813.126C469.91 814.572 468.782 816.24 468.947 818.065Z" fill="#F3ED99"/>
<path d="M465.527 825.338C464.64 825.528 464.108 826.386 463.696 827.176C459.993 834.315 458.405 842.566 459.268 850.572C459.35 851.434 459.62 852.464 460.455 852.715C461.445 853.027 462.31 851.93 462.779 850.994C464.72 847.294 466.66 843.59 468.601 839.89C469.689 837.845 470.775 835.667 470.629 833.362C470.483 831.06 467.788 824.855 465.527 825.338Z" fill="#F3ED99"/>
<path d="M494.134 831.042C494.697 832.803 495.754 834.657 497.546 835.11C499.307 835.554 501.154 834.416 502.1 832.873C503.016 831.332 503.28 829.47 503.453 827.67C504.425 818.032 504.443 808.299 503.542 798.652C503.425 797.625 502.964 796.283 501.953 796.378C501.401 796.424 501.012 796.87 500.684 797.289C496.065 803.352 494.158 811.085 493.383 818.678C492.989 822.815 492.874 827.085 494.134 831.042Z" fill="#F3ED99"/>
<path d="M540.887 810.824C538.146 807.882 535.191 804.984 531.528 803.342C531.031 803.117 530.443 802.916 529.926 803.116C529.58 805.389 530.31 807.721 531.523 809.684C532.705 811.652 534.311 813.311 535.946 814.951C537.268 816.322 538.621 817.692 539.974 819.062C541.138 820.268 542.643 821.576 544.294 821.251C545.299 819.559 545.125 817.374 544.346 815.566C543.566 813.761 542.241 812.262 540.887 810.824Z" fill="#F3ED99"/>
<path d="M552.056 835.333C552.743 831.88 550.943 828.442 548.849 825.599C548.277 824.791 547.274 823.911 546.425 824.404C544.939 827.83 545.096 831.909 546.832 835.209C547.218 835.972 547.727 836.716 548.445 837.188C549.162 837.66 550.148 837.809 550.875 837.368C551.572 836.952 551.921 836.126 552.056 835.333Z" fill="#F3ED99"/>
<path d="M506.761 889.256C510.413 889.106 512.499 885.082 513.646 881.606C520.046 862.403 521.803 841.671 518.693 821.667C517.174 811.877 513.982 801.464 505.893 795.751C508.659 816.799 510.016 838.027 509.959 859.252C509.958 863.141 509.896 867.031 509.772 870.919C509.58 877.146 509.207 883.521 506.761 889.256Z" fill="#DC7029"/>
<path d="M695.212 377.345C735.235 448.348 757.189 529.43 758.544 610.932C747.386 586.935 736.228 562.942 725.07 538.945C728.863 569.751 729.163 600.983 726.047 631.861C725.048 641.688 722.039 653.52 712.517 656.11C700.889 659.268 691.722 645.548 689.877 633.639C688.032 621.733 688.694 608.02 679.991 599.687C680.199 633.506 664.738 667.102 638.897 688.924C635.856 661.35 632.784 633.779 629.743 606.205C627.356 614.432 624.882 622.892 619.54 629.58C614.199 636.265 605.214 640.803 597.019 638.404C588.576 635.939 583.582 627.261 580.868 618.908C567.802 579.008 586.795 536.218 607.253 499.56C627.71 462.903 650.876 423.892 646.459 382.142L695.212 377.345Z" fill="#F2591D"/>
<path d="M638.982 692.191C638.552 692.201 638.12 692.125 637.717 691.96C636.601 691.512 635.809 690.483 635.689 689.283L628.138 621.262C626.565 624.904 624.621 628.439 622.084 631.622C616.445 638.689 606.23 644.495 596.087 641.541C585.82 638.529 580.447 628.123 577.767 619.923C564.272 578.714 583.677 535.149 604.398 497.969L607.288 492.832C626.981 457.644 647.322 421.262 643.22 382.487C643.025 380.693 644.308 379.086 646.115 378.893C647.953 378.681 649.52 380.003 649.715 381.797C654.05 422.639 633.178 459.945 612.983 496.025L610.093 501.156C590.05 537.1 571.252 579.08 583.955 617.891C586.17 624.596 590.36 633.056 597.937 635.267C605.111 637.374 612.835 632.733 616.983 627.539C621.996 621.264 624.355 613.149 626.628 605.3C627.054 603.802 628.474 602.822 630.013 602.952C631.583 603.087 632.809 604.297 632.999 605.848L641.452 682.262C663.837 661.032 676.916 630.627 676.745 599.706C676.714 598.394 677.515 597.207 678.701 596.688C679.918 596.17 681.306 596.421 682.248 597.327C689.977 604.724 691.085 615.316 692.184 625.56C692.459 628.121 692.734 630.675 693.099 633.144C694.29 640.719 698.582 648.27 703.541 651.504C706.162 653.223 708.906 653.706 711.684 652.958C717.787 651.291 721.55 644.083 722.823 631.533C725.915 600.916 725.588 569.9 721.832 539.343C721.641 537.749 722.651 536.247 724.176 535.805C725.732 535.36 727.346 536.112 728.025 537.569L754.771 595.043C751.034 519.382 729.606 444.996 692.402 378.95C691.505 377.379 692.042 375.387 693.619 374.501C695.195 373.616 697.204 374.171 698.07 375.74C738.415 447.366 760.466 528.675 761.806 610.879C761.842 612.421 760.768 613.774 759.271 614.12C757.775 614.471 756.221 613.708 755.574 612.312L730.218 557.763C732.119 582.539 731.812 607.492 729.319 632.192C727.747 647.707 722.37 656.815 713.398 659.263C708.82 660.498 704.194 659.715 699.984 656.983C693.372 652.677 688.125 643.71 686.672 634.14C686.274 631.57 685.967 628.918 685.689 626.254C685.095 620.55 684.506 615.039 682.828 610.301C680.148 641.449 664.965 671.18 641.021 691.421C640.449 691.911 639.718 692.174 638.982 692.191Z" fill="#292625"/>
<path d="M127.696 390.627C91.0691 463.423 72.9021 545.444 75.3925 626.919C85.4154 602.427 95.4383 577.938 105.431 553.447C103.114 584.395 104.244 615.608 108.802 646.306C110.259 656.075 113.818 667.753 123.451 669.895C135.214 672.506 143.76 658.371 145.015 646.39C146.301 634.411 145.029 620.743 153.332 612.012C154.707 645.804 171.723 678.639 198.526 699.229C200.304 671.542 202.052 643.859 203.831 616.173C206.57 624.279 209.468 632.613 215.116 639.044C220.764 645.472 229.921 649.586 238.025 646.805C246.313 643.949 250.895 635.046 253.246 626.575C264.431 586.107 243.426 544.253 221.307 508.592C199.158 472.932 174.161 435.048 176.651 393.136L127.696 390.627Z" fill="#F2591D"/>
<path d="M198.593 702.495C197.857 702.512 197.145 702.283 196.52 701.821C171.656 682.725 155.129 653.733 150.964 622.746C149.541 627.553 149.21 633.085 148.852 638.808C148.7 641.486 148.547 644.149 148.27 646.737C147.236 656.365 142.445 665.567 136.011 670.178C131.964 673.104 127.38 674.103 122.749 673.083C113.641 671.058 107.875 662.211 105.579 646.787C101.933 622.221 100.459 597.309 101.168 572.482L78.3915 628.158C77.8106 629.582 76.3253 630.416 74.7831 630.136C73.2717 629.861 72.1661 628.558 72.13 627.016C69.6232 544.84 87.8157 462.592 124.765 389.154C125.588 387.546 127.538 386.901 129.154 387.708C130.77 388.519 131.4 390.484 130.608 392.095C96.5346 459.809 78.6098 535.119 78.417 610.869L102.413 552.207C103.024 550.72 104.632 549.892 106.177 550.265C107.752 550.634 108.799 552.088 108.683 553.689C106.391 584.376 107.485 615.374 112.037 645.824C113.895 658.301 117.961 665.325 124.166 666.705C126.945 667.322 129.664 666.712 132.232 664.872C137.034 661.409 140.968 653.665 141.773 646.044C142.053 643.557 142.208 640.995 142.332 638.42C142.951 628.138 143.593 617.508 150.936 609.758C151.836 608.809 153.241 608.493 154.45 608.954C155.689 609.417 156.515 610.565 156.576 611.877C157.821 642.776 172.339 672.534 195.661 692.692L200.561 615.962C200.648 614.408 201.846 613.138 203.377 612.933C204.908 612.725 206.404 613.643 206.899 615.119C209.537 622.85 212.243 630.844 217.544 636.884C221.93 641.878 229.892 646.14 236.961 643.712C244.395 641.152 248.216 632.505 250.084 625.701C260.957 586.341 240.217 545.284 218.513 510.317L215.417 505.317C193.557 470.225 170.962 433.938 173.381 392.941C173.493 391.14 174.965 389.753 176.842 389.872C178.626 389.981 180.013 391.526 179.902 393.33C177.588 432.249 199.639 467.635 220.957 501.858L224.053 506.867C246.522 543.04 267.913 585.65 256.36 627.442C254.067 635.758 249.217 646.404 239.071 649.893C229.108 653.321 218.633 647.996 212.639 641.201C209.956 638.14 207.849 634.704 206.138 631.138L201.778 699.435C201.683 700.639 200.971 701.704 199.877 702.203C199.451 702.388 199.023 702.485 198.593 702.495Z" fill="#292625"/>
<path d="M172.856 426.896C168.774 474.274 181.277 522.924 207.663 562.463C210.369 566.5 214.681 570.967 219.25 569.326C223.544 567.781 224.331 562.02 223.824 557.458C221.815 538.516 211.257 521.773 202.446 504.887C192.06 484.986 178.738 448.557 172.856 426.896Z" fill="#F2CC46"/>
<path d="M244.215 621.1C245.304 612.483 244.39 603.614 241.526 595.415C240.375 592.183 238.918 588.968 236.406 586.626C233.925 584.283 230.208 582.971 226.978 584.065C224.753 597.895 228.075 612.539 236.023 624.062C236.976 625.438 238.208 626.9 239.899 626.962C242.574 627.065 243.878 623.758 244.215 621.1Z" fill="#F2CC46"/>
<path d="M656.521 415.577C662.815 462.712 652.602 511.893 628.093 552.623C625.58 556.783 621.482 561.447 616.841 560.021C612.449 558.679 611.424 552.961 611.685 548.381C612.837 529.365 622.601 512.146 630.612 494.867C640.056 474.502 651.659 437.489 656.521 415.577Z" fill="#F2CC46"/>
<path d="M594.334 612.906C592.844 604.349 593.342 595.447 595.819 587.123C596.787 583.842 598.123 580.561 600.523 578.104C602.891 575.648 606.512 574.165 609.82 575.105C612.69 588.816 610.057 603.599 602.656 615.481C601.768 616.901 600.575 618.42 598.92 618.56C596.253 618.788 594.795 615.545 594.334 612.906Z" fill="#F2CC46"/>
<path d="M104.913 172.031C104.271 166.904 98.0914 164.026 93.0166 165.037C87.9725 166.046 83.9121 169.723 80.188 173.326C68.4465 184.757 57.3711 197.082 49.2579 211.314C41.114 225.544 36.0597 241.86 36.9648 258.226C37.1063 260.332 37.3742 262.604 38.8534 264.127C40.8058 266.184 44.2738 266.066 46.7277 264.616C49.1815 263.163 50.8131 260.706 52.354 258.303C68.231 233.286 79.8931 205.347 99.4595 183.115C102.272 179.923 105.442 176.252 104.913 172.031Z" fill="white"/>
<path d="M82.5834 275.431C83.2859 276.577 84.6198 277.142 85.8598 277.632C91.9979 280.058 98.1054 282.482 104.243 284.909C117.501 252.942 136.784 223.877 155.889 195.034C148.55 191.179 141.446 186.857 134.639 182.104C123.865 194.179 115.126 207.891 106.446 221.534C96.5206 237.075 86.4513 253.026 82.4187 271.011C82.0847 272.488 81.8159 274.136 82.5834 275.431Z" fill="white"/>
<path d="M676.951 161.162C673.332 154.837 667.896 149.579 661.459 146.209C657.355 144.074 652.837 142.636 649.327 139.629C642.628 144.741 635.105 148.775 627.123 151.529C635.97 158.152 643.716 166.283 649.889 175.472C658.899 170.702 667.91 165.932 676.951 161.162Z" fill="white"/>
<path d="M725.134 181.946C723.518 162.765 708.958 146.933 692.627 136.805C689.23 134.711 685.714 132.771 681.88 131.695C677.676 130.524 673.281 130.415 668.954 130.59C667.482 130.652 665.473 131.415 665.844 132.845C665.98 133.399 666.48 133.777 666.948 134.114C686.511 148.467 703.842 165.866 718.122 185.498C719.042 186.768 720.181 188.174 721.748 188.214C724.453 188.289 725.35 184.631 725.134 181.946Z" fill="white"/>
<path d="M276.968 764.69C277.834 763.631 288.698 771.151 301.225 781.485C313.753 791.818 323.183 801.054 322.317 802.113C321.451 803.169 310.587 795.649 298.059 785.315C285.532 774.981 276.102 765.746 276.968 764.69Z" fill="#292625"/>
<path d="M305.574 729.814C306.313 729.877 306.689 732.822 307.286 737.352C307.976 741.897 309.287 748.027 311.681 754.507C314.288 760.91 317.455 766.305 320.001 770.137C322.638 773.875 324.353 776.297 323.844 776.841C323.425 777.312 320.809 775.769 317.289 772.365C313.891 768.888 309.89 763.282 307.054 756.303C304.432 749.254 303.596 742.415 303.789 737.541C304.074 732.653 304.959 729.749 305.574 729.814Z" fill="#292625"/>
<path d="M410.871 764.233C411.402 764.608 410.087 767.504 407.145 771.689C404.139 775.817 399.286 781.061 393.102 785.848C386.823 790.526 380.48 793.764 375.699 795.542C370.856 797.245 367.734 797.733 367.505 797.123C367.243 796.447 369.938 794.804 374.181 792.368C378.422 789.856 384.145 786.325 390.122 781.894C395.974 777.349 400.935 772.788 404.48 769.388C407.993 765.942 410.277 763.811 410.871 764.233Z" fill="#292625"/>
<path d="M466.231 759.826C466.932 759.594 468.436 762.197 470.802 766.19C473.26 770.147 476.914 775.349 481.762 780.425C486.761 785.352 491.886 789.093 495.815 791.63C499.772 794.045 502.327 795.6 502.098 796.3C501.897 796.895 498.847 796.505 494.199 794.748C489.64 792.884 483.659 789.274 478.22 783.904C472.961 778.393 469.442 772.358 467.644 767.746C465.969 763.072 465.621 760.009 466.231 759.826Z" fill="#292625"/>
<path d="M552.263 762.592C553.231 763.283 547.162 773.01 536.534 782.133C525.622 790.969 514.971 795.177 514.485 794.1C513.746 792.719 522.944 786.755 533.343 778.319C543.52 769.615 551.043 761.646 552.263 762.592Z" fill="#292625"/>
<path d="M549.909 676.439C551.293 676.526 552.129 680.731 551.818 685.829C551.477 690.927 550.129 694.992 548.744 694.908C547.391 694.819 546.555 690.615 546.866 685.517C547.177 680.419 548.556 676.354 549.909 676.439Z" fill="#292625"/>
<path d="M570.612 634.474C571.737 633.98 576.423 642.588 578.634 654.375C580.508 666.212 578.953 675.898 577.753 675.807C576.247 675.737 575.538 666.442 573.739 655.218C571.666 644.043 569.213 635.048 570.612 634.474Z" fill="#292625"/>
<path d="M264.045 652.467C264.727 652.74 264.473 655.018 263.939 658.449C263.529 661.917 263.086 666.618 263.239 671.831C263.575 677.034 264.422 681.677 265.177 685.09C266.024 688.458 266.475 690.701 265.838 691.039C265.262 691.344 263.655 689.626 261.888 686.289C260.212 682.932 258.65 677.853 258.299 672.061C258.102 666.264 259.178 661.062 260.571 657.562C262.025 654.076 263.455 652.213 264.045 652.467Z" fill="#292625"/>
<path d="M294.413 653.193C295.77 653.395 295.576 662.17 294.012 672.797C292.418 683.421 290.036 691.869 288.68 691.667C287.324 691.465 287.518 682.691 289.081 672.064C290.675 661.439 293.057 652.991 294.413 653.193Z" fill="#292625"/>
<path d="M333.517 597.019C334.872 597.181 335.289 603.156 334.413 610.367C333.568 617.58 331.798 623.293 330.412 623.135C329.057 622.973 328.64 616.998 329.516 609.784C330.361 602.574 332.131 596.861 333.517 597.019Z" fill="#292625"/>
<path d="M303.016 566.856C304.344 567.194 303.484 575.071 301.124 584.45C298.733 593.83 295.741 601.158 294.412 600.823C293.084 600.485 293.944 592.608 296.304 583.229C298.695 573.849 301.687 566.521 303.016 566.856Z" fill="#292625"/>
<path d="M505.557 606.783C504.21 606.981 502.304 601.655 501.286 594.888C500.298 588.118 500.596 582.47 501.942 582.269C503.289 582.072 505.195 587.395 506.214 594.164C507.201 600.932 506.904 606.583 505.557 606.783Z" fill="#292625"/>
<path d="M536.151 593.763C534.772 593.876 533.202 588.471 532.644 581.694C532.086 574.913 532.754 569.327 534.103 569.213C535.482 569.1 537.021 574.506 537.61 581.282C538.168 588.063 537.5 593.652 536.151 593.763Z" fill="#292625"/>
<path d="M331.326 710.776C330.2 711.215 325.679 701.794 323.909 689.139C322.445 676.441 324.477 666.19 325.679 666.334C327.187 666.468 327.451 676.428 328.808 688.514C330.503 700.556 332.757 710.266 331.326 710.776Z" fill="#292625"/>
<path d="M350.977 765.66C349.633 765.952 348.085 764.144 347.566 761.62C347.015 759.1 347.637 756.82 348.982 756.53C350.327 756.24 351.843 758.049 352.394 760.569C352.944 763.093 352.291 765.371 350.977 765.66Z" fill="#292625"/>
<path d="M516.121 471.391C516.098 471.732 515.119 471.9 513.307 471.902C512.417 471.904 511.341 471.865 510.049 471.788C508.787 471.682 507.313 471.686 505.767 471.23C499.473 470.016 490.983 466.851 482.895 461.132C474.984 455.169 469.381 448.027 466.301 442.397C465.379 441.075 464.947 439.656 464.459 438.48C464.001 437.292 463.608 436.259 463.342 435.408C462.811 433.702 462.665 432.712 462.969 432.579C463.304 432.445 464.027 433.172 465.073 434.571C465.612 435.269 466.216 436.137 466.884 437.151C467.584 438.149 468.196 439.377 469.236 440.508C472.912 445.368 478.494 451.58 485.811 457.126C493.306 462.416 500.941 465.834 506.67 467.84C508.068 468.49 509.424 468.707 510.6 469.063C511.744 469.39 512.764 469.701 513.6 469.989C515.242 470.566 516.144 471.049 516.121 471.391Z" fill="#292625"/>
<path d="M543.33 457.914C543.559 458.505 541.442 459.901 537.57 461.133C533.665 462.254 527.965 462.818 521.798 461.763C515.657 460.533 510.498 457.951 507.278 455.512C504.116 452.967 502.624 450.908 503.043 450.434C503.522 449.87 505.727 450.913 509.081 452.497C512.494 454 517.235 455.774 522.697 456.885C528.186 457.808 533.224 457.85 536.967 457.676C540.646 457.393 543.099 457.219 543.33 457.914Z" fill="#292625"/>
<path d="M316.686 479.028C316.007 477.574 327.164 471.371 339.63 462.029C351.842 452.339 360.688 443.147 361.94 444.154C362.442 444.594 360.694 447.349 357.413 451.502C354.352 455.877 348.782 460.668 342.671 465.96C335.99 470.528 329.944 474.681 324.92 476.539C320.056 478.666 316.977 479.648 316.686 479.028Z" fill="#292625"/>
<path d="M252.2 477.88C252.015 476.522 263.503 473.96 277.805 472.165C292.106 470.367 303.861 470.012 304.046 471.373C304.201 472.731 292.743 475.289 278.411 477.088C264.11 478.886 252.355 479.241 252.2 477.88Z" fill="#292625"/>
</svg>
